<mxfile host="app.diagrams.net" modified="2021-04-10T10:59:02.617Z" agent="5.0 (Windows NT 10.0; Win64; x64) AppleWebKit/537.36 (KHTML, like Gecko) Chrome/89.0.4389.114 Safari/537.36" etag="ikHV2P0Sxv7xe2RKyeQK" version="14.4.6" type="github">
  <diagram name="Page-1" id="97916047-d0de-89f5-080d-49f4d83e522f">
    <mxGraphModel dx="4348.5" dy="1470" grid="1" gridSize="10" guides="1" tooltips="1" connect="1" arrows="1" fold="1" page="1" pageScale="1.5" pageWidth="1169" pageHeight="827" background="#ffffff" math="0" shadow="0">
      <root>
        <mxCell id="0" />
        <mxCell id="1" parent="0" />
        <mxCell id="2" value="Java Data Types" style="rounded=1;strokeColor=#b85450;shadow=1;fontStyle=1;fontSize=31;fillColor=#F81414;fontFamily=Courier New;fontColor=#F9FFF7;" parent="1" vertex="1">
          <mxGeometry x="470" y="150" width="370" height="64.5" as="geometry" />
        </mxCell>
        <mxCell id="4" value="Primitive" style="rounded=1;fillColor=#a20025;strokeColor=#6F0000;shadow=1;fontStyle=1;fontSize=24;fontColor=#ffffff;" parent="1" vertex="1">
          <mxGeometry x="170" y="350" width="200" height="60" as="geometry" />
        </mxCell>
        <mxCell id="6" value="Non - Primitive" style="rounded=1;fillColor=#a20025;strokeColor=#6F0000;shadow=1;fontStyle=1;fontSize=24;fontColor=#ffffff;" parent="1" vertex="1">
          <mxGeometry x="950" y="340" width="200" height="60" as="geometry" />
        </mxCell>
        <mxCell id="8" value="Integer" style="rounded=1;fillColor=#1ba1e2;strokeColor=#006EAF;shadow=1;fontStyle=1;fontColor=#ffffff;fontSize=24;" parent="1" vertex="1">
          <mxGeometry x="-160" y="525.5" width="200" height="60" as="geometry" />
        </mxCell>
        <mxCell id="9" value="Boolean" style="rounded=1;fillColor=#1ba1e2;strokeColor=#006EAF;shadow=1;fontStyle=1;fontColor=#ffffff;fontSize=24;" parent="1" vertex="1">
          <mxGeometry x="740" y="525.5" width="200" height="60" as="geometry" />
        </mxCell>
        <mxCell id="10" value="Float-Point Number" style="rounded=1;fillColor=#1ba1e2;strokeColor=#006EAF;shadow=1;fontStyle=1;fontColor=#ffffff;fontSize=24;" parent="1" vertex="1">
          <mxGeometry x="130" y="525.5" width="250" height="60" as="geometry" />
        </mxCell>
        <mxCell id="11" value="Characters" style="rounded=1;fillColor=#1ba1e2;strokeColor=#006EAF;shadow=1;fontStyle=1;fontColor=#ffffff;fontSize=24;" parent="1" vertex="1">
          <mxGeometry x="490" y="525.5" width="200" height="60" as="geometry" />
        </mxCell>
        <mxCell id="31" value="" style="edgeStyle=elbowEdgeStyle;elbow=vertical;strokeWidth=4;endArrow=block;endFill=1;fontStyle=1;strokeColor=#23445D;exitX=0.5;exitY=1;exitDx=0;exitDy=0;" parent="1" source="2" target="4" edge="1">
          <mxGeometry x="22" y="165.5" width="100" height="100" as="geometry">
            <mxPoint x="772" y="405.5" as="sourcePoint" />
            <mxPoint x="122" y="165.5" as="targetPoint" />
          </mxGeometry>
        </mxCell>
        <mxCell id="32" value="" style="edgeStyle=elbowEdgeStyle;elbow=vertical;strokeWidth=4;endArrow=block;endFill=1;fontStyle=1;strokeColor=#23445D;exitX=0.5;exitY=1;exitDx=0;exitDy=0;" parent="1" source="2" target="6" edge="1">
          <mxGeometry x="22" y="165.5" width="100" height="100" as="geometry">
            <mxPoint x="772" y="405.5" as="sourcePoint" />
            <mxPoint x="122" y="165.5" as="targetPoint" />
          </mxGeometry>
        </mxCell>
        <mxCell id="34" value="" style="edgeStyle=elbowEdgeStyle;elbow=vertical;strokeWidth=4;endArrow=block;endFill=1;fontStyle=1;strokeColor=#23445D;exitX=0.5;exitY=1;exitDx=0;exitDy=0;" parent="1" source="4" target="8" edge="1">
          <mxGeometry x="22" y="165.5" width="100" height="100" as="geometry">
            <mxPoint x="490" y="440" as="sourcePoint" />
            <mxPoint x="122" y="165.5" as="targetPoint" />
            <Array as="points">
              <mxPoint x="360" y="470" />
            </Array>
          </mxGeometry>
        </mxCell>
        <mxCell id="38" value="" style="edgeStyle=elbowEdgeStyle;elbow=vertical;strokeWidth=4;endArrow=block;endFill=1;fontStyle=1;strokeColor=#23445D;exitX=0.5;exitY=1;exitDx=0;exitDy=0;entryX=0.5;entryY=0;entryDx=0;entryDy=0;" parent="1" source="4" target="9" edge="1">
          <mxGeometry x="62" y="165.5" width="100" height="100" as="geometry">
            <mxPoint x="62" y="265.5" as="sourcePoint" />
            <mxPoint x="162" y="165.5" as="targetPoint" />
            <Array as="points">
              <mxPoint x="710" y="470" />
            </Array>
          </mxGeometry>
        </mxCell>
        <mxCell id="39" value="" style="edgeStyle=elbowEdgeStyle;elbow=vertical;strokeWidth=4;endArrow=block;endFill=1;fontStyle=1;strokeColor=#23445D;exitX=0.5;exitY=1;exitDx=0;exitDy=0;entryX=0.5;entryY=0;entryDx=0;entryDy=0;" parent="1" source="4" target="10" edge="1">
          <mxGeometry x="62" y="175.5" width="100" height="100" as="geometry">
            <mxPoint x="62" y="275.5" as="sourcePoint" />
            <mxPoint x="162" y="175.5" as="targetPoint" />
            <Array as="points">
              <mxPoint x="240" y="470" />
            </Array>
          </mxGeometry>
        </mxCell>
        <mxCell id="40" value="" style="edgeStyle=elbowEdgeStyle;elbow=vertical;strokeWidth=4;endArrow=block;endFill=1;fontStyle=1;strokeColor=#23445D;entryX=0.5;entryY=0;entryDx=0;entryDy=0;exitX=0.5;exitY=1;exitDx=0;exitDy=0;" parent="1" source="4" target="11" edge="1">
          <mxGeometry x="62" y="185.5" width="100" height="100" as="geometry">
            <mxPoint x="530" y="420" as="sourcePoint" />
            <mxPoint x="162" y="185.5" as="targetPoint" />
            <Array as="points">
              <mxPoint x="600" y="500" />
            </Array>
          </mxGeometry>
        </mxCell>
        <mxCell id="yrki4BqhUQI8d_z3Tpax-65" value="double" style="rounded=1;shadow=1;fontStyle=1;fontSize=24;fillColor=#dae8fc;strokeColor=#006600;fontColor=#000099;" vertex="1" parent="1">
          <mxGeometry x="300" y="705.5" width="200" height="60" as="geometry" />
        </mxCell>
        <mxCell id="yrki4BqhUQI8d_z3Tpax-66" value="float" style="rounded=1;fillColor=#dae8fc;shadow=1;fontStyle=1;fontSize=24;strokeColor=#006600;fontColor=#000099;" vertex="1" parent="1">
          <mxGeometry x="300" y="826.5" width="200" height="60" as="geometry" />
        </mxCell>
        <mxCell id="yrki4BqhUQI8d_z3Tpax-74" value="char" style="rounded=1;shadow=1;fontStyle=1;fontSize=24;fillColor=#dae8fc;strokeColor=#006600;fontColor=#000099;" vertex="1" parent="1">
          <mxGeometry x="520" y="705.5" width="200" height="60" as="geometry" />
        </mxCell>
        <mxCell id="yrki4BqhUQI8d_z3Tpax-80" value="" style="edgeStyle=elbowEdgeStyle;elbow=vertical;strokeWidth=4;endArrow=block;endFill=1;fontStyle=1;strokeColor=#23445D;exitX=0.5;exitY=1;exitDx=0;exitDy=0;entryX=0.5;entryY=0;entryDx=0;entryDy=0;" edge="1" parent="1" target="yrki4BqhUQI8d_z3Tpax-74">
          <mxGeometry x="-158" y="485.5" width="100" height="100" as="geometry">
            <mxPoint x="592" y="585.5" as="sourcePoint" />
            <mxPoint x="350" y="680" as="targetPoint" />
          </mxGeometry>
        </mxCell>
        <mxCell id="yrki4BqhUQI8d_z3Tpax-81" value="boolean" style="rounded=1;shadow=1;fontStyle=1;fontSize=24;fillColor=#dae8fc;strokeColor=#006600;fontColor=#000099;" vertex="1" parent="1">
          <mxGeometry x="740" y="720" width="200" height="60" as="geometry" />
        </mxCell>
        <mxCell id="yrki4BqhUQI8d_z3Tpax-82" value="" style="edgeStyle=elbowEdgeStyle;elbow=vertical;strokeWidth=4;endArrow=block;endFill=1;fontStyle=1;strokeColor=#23445D;exitX=0.5;exitY=1;exitDx=0;exitDy=0;entryX=0.5;entryY=0;entryDx=0;entryDy=0;" edge="1" parent="1" source="9" target="yrki4BqhUQI8d_z3Tpax-81">
          <mxGeometry x="-148" y="495.5" width="100" height="100" as="geometry">
            <mxPoint x="602" y="595.5" as="sourcePoint" />
            <mxPoint x="630" y="715.5" as="targetPoint" />
          </mxGeometry>
        </mxCell>
        <mxCell id="yrki4BqhUQI8d_z3Tpax-83" value="short" style="rounded=1;shadow=1;fontStyle=1;fontSize=24;fillColor=#dae8fc;strokeColor=#006600;fontColor=#000099;" vertex="1" parent="1">
          <mxGeometry x="1120" y="560" width="200" height="60" as="geometry" />
        </mxCell>
        <mxCell id="yrki4BqhUQI8d_z3Tpax-84" value="byte" style="rounded=1;fillColor=#dae8fc;shadow=1;fontStyle=1;fontSize=24;strokeColor=#006600;fontColor=#000099;" vertex="1" parent="1">
          <mxGeometry x="1120" y="670" width="200" height="60" as="geometry" />
        </mxCell>
        <mxCell id="yrki4BqhUQI8d_z3Tpax-85" value="Classes" style="rounded=1;fillColor=#ffe6cc;shadow=1;fontStyle=1;fontSize=24;strokeColor=#EB7500;" vertex="1" parent="1">
          <mxGeometry x="1120" y="780" width="200" height="60" as="geometry" />
        </mxCell>
        <mxCell id="yrki4BqhUQI8d_z3Tpax-86" value="Etc" style="rounded=1;fillColor=#ffe6cc;shadow=1;fontStyle=1;fontSize=24;strokeColor=#EB7500;" vertex="1" parent="1">
          <mxGeometry x="1120" y="886.5" width="200" height="60" as="geometry" />
        </mxCell>
        <mxCell id="yrki4BqhUQI8d_z3Tpax-93" value="" style="edgeStyle=elbowEdgeStyle;elbow=vertical;strokeWidth=4;endArrow=block;endFill=1;fontStyle=1;strokeColor=#23445D;exitX=0.5;exitY=1;exitDx=0;exitDy=0;entryX=0;entryY=0.5;entryDx=0;entryDy=0;" edge="1" parent="1" source="6" target="yrki4BqhUQI8d_z3Tpax-83">
          <mxGeometry x="342" y="500" width="100" height="100" as="geometry">
            <mxPoint x="1092" y="600" as="sourcePoint" />
            <mxPoint x="1150" y="530" as="targetPoint" />
            <Array as="points">
              <mxPoint x="1130" y="590" />
            </Array>
          </mxGeometry>
        </mxCell>
        <mxCell id="yrki4BqhUQI8d_z3Tpax-94" value="" style="edgeStyle=elbowEdgeStyle;elbow=vertical;strokeWidth=4;endArrow=block;endFill=1;fontStyle=1;strokeColor=#23445D;entryX=0;entryY=0.5;entryDx=0;entryDy=0;exitX=0.5;exitY=1;exitDx=0;exitDy=0;" edge="1" parent="1" source="6" target="yrki4BqhUQI8d_z3Tpax-84">
          <mxGeometry x="352" y="510" width="100" height="100" as="geometry">
            <mxPoint x="1070" y="430" as="sourcePoint" />
            <mxPoint x="1110" y="700" as="targetPoint" />
            <Array as="points">
              <mxPoint x="1030" y="700" />
            </Array>
          </mxGeometry>
        </mxCell>
        <mxCell id="yrki4BqhUQI8d_z3Tpax-96" value="" style="edgeStyle=elbowEdgeStyle;elbow=vertical;strokeWidth=4;endArrow=block;endFill=1;fontStyle=1;strokeColor=#23445D;entryX=0;entryY=0.5;entryDx=0;entryDy=0;exitX=0.5;exitY=1;exitDx=0;exitDy=0;" edge="1" parent="1" source="6" target="yrki4BqhUQI8d_z3Tpax-85">
          <mxGeometry x="352" y="645" width="100" height="100" as="geometry">
            <mxPoint x="1000" y="390" as="sourcePoint" />
            <mxPoint x="1110" y="835" as="targetPoint" />
            <Array as="points">
              <mxPoint x="1090" y="810" />
            </Array>
          </mxGeometry>
        </mxCell>
        <mxCell id="yrki4BqhUQI8d_z3Tpax-97" style="edgeStyle=orthogonalEdgeStyle;rounded=0;orthogonalLoop=1;jettySize=auto;html=1;exitX=0.5;exitY=1;exitDx=0;exitDy=0;fontFamily=Courier New;fontSize=24;fontColor=#000099;" edge="1" parent="1" source="yrki4BqhUQI8d_z3Tpax-85" target="yrki4BqhUQI8d_z3Tpax-85">
          <mxGeometry relative="1" as="geometry" />
        </mxCell>
        <mxCell id="yrki4BqhUQI8d_z3Tpax-98" value="" style="edgeStyle=elbowEdgeStyle;elbow=vertical;strokeWidth=4;endArrow=block;endFill=1;fontStyle=1;strokeColor=#23445D;entryX=0;entryY=0.5;entryDx=0;entryDy=0;exitX=0.5;exitY=1;exitDx=0;exitDy=0;" edge="1" parent="1" source="6" target="yrki4BqhUQI8d_z3Tpax-86">
          <mxGeometry x="362" y="655" width="100" height="100" as="geometry">
            <mxPoint x="1070" y="430" as="sourcePoint" />
            <mxPoint x="1130" y="820" as="targetPoint" />
            <Array as="points">
              <mxPoint x="1060" y="917" />
            </Array>
          </mxGeometry>
        </mxCell>
        <mxCell id="yrki4BqhUQI8d_z3Tpax-106" value="" style="edgeStyle=elbowEdgeStyle;elbow=vertical;strokeWidth=4;endArrow=block;endFill=1;fontStyle=1;strokeColor=#23445D;entryX=0;entryY=0.5;entryDx=0;entryDy=0;exitX=0.5;exitY=1;exitDx=0;exitDy=0;" edge="1" parent="1" source="6">
          <mxGeometry x="362" y="655" width="100" height="100" as="geometry">
            <mxPoint x="1070" y="430" as="sourcePoint" />
            <mxPoint x="1120" y="916.5" as="targetPoint" />
            <Array as="points">
              <mxPoint x="1060" y="917" />
            </Array>
          </mxGeometry>
        </mxCell>
        <mxCell id="yrki4BqhUQI8d_z3Tpax-107" value="" style="edgeStyle=elbowEdgeStyle;elbow=vertical;strokeWidth=4;endArrow=block;endFill=1;fontStyle=1;strokeColor=#23445D;entryX=0;entryY=0.5;entryDx=0;entryDy=0;exitX=0.5;exitY=1;exitDx=0;exitDy=0;" edge="1" parent="1" source="6">
          <mxGeometry x="352" y="645" width="100" height="100" as="geometry">
            <mxPoint x="1070" y="430" as="sourcePoint" />
            <mxPoint x="1120" y="810" as="targetPoint" />
            <Array as="points">
              <mxPoint x="1090" y="810" />
            </Array>
          </mxGeometry>
        </mxCell>
        <mxCell id="yrki4BqhUQI8d_z3Tpax-108" value="" style="edgeStyle=elbowEdgeStyle;elbow=vertical;strokeWidth=4;endArrow=block;endFill=1;fontStyle=1;strokeColor=#23445D;entryX=0;entryY=0.5;entryDx=0;entryDy=0;exitX=0.5;exitY=1;exitDx=0;exitDy=0;" edge="1" target="yrki4BqhUQI8d_z3Tpax-111" parent="1" source="6">
          <mxGeometry x="352" y="510" width="100" height="100" as="geometry">
            <mxPoint x="1070" y="430" as="sourcePoint" />
            <mxPoint x="1110" y="700" as="targetPoint" />
            <Array as="points">
              <mxPoint x="1030" y="700" />
            </Array>
          </mxGeometry>
        </mxCell>
        <mxCell id="yrki4BqhUQI8d_z3Tpax-109" value="" style="edgeStyle=elbowEdgeStyle;elbow=vertical;strokeWidth=4;endArrow=block;endFill=1;fontStyle=1;strokeColor=#23445D;exitX=0.5;exitY=1;exitDx=0;exitDy=0;entryX=0;entryY=0.5;entryDx=0;entryDy=0;" edge="1" target="yrki4BqhUQI8d_z3Tpax-110" parent="1" source="6">
          <mxGeometry x="342" y="500" width="100" height="100" as="geometry">
            <mxPoint x="1070" y="430" as="sourcePoint" />
            <mxPoint x="1150" y="530" as="targetPoint" />
            <Array as="points">
              <mxPoint x="1130" y="590" />
            </Array>
          </mxGeometry>
        </mxCell>
        <mxCell id="yrki4BqhUQI8d_z3Tpax-110" value="String" style="rounded=1;shadow=1;fontStyle=1;fontSize=24;fillColor=#ffe6cc;strokeColor=#EB7500;" vertex="1" parent="1">
          <mxGeometry x="1120" y="560" width="200" height="60" as="geometry" />
        </mxCell>
        <mxCell id="yrki4BqhUQI8d_z3Tpax-111" value="Array" style="rounded=1;fillColor=#ffe6cc;shadow=1;fontStyle=1;fontSize=24;strokeColor=#EB7500;" vertex="1" parent="1">
          <mxGeometry x="1120" y="670" width="200" height="60" as="geometry" />
        </mxCell>
        <mxCell id="yrki4BqhUQI8d_z3Tpax-112" value="long" style="rounded=1;fillColor=#dae8fc;shadow=1;fontStyle=1;fontSize=24;strokeColor=#006600;fontColor=#000099;" vertex="1" parent="1">
          <mxGeometry x="-10" y="1046.5" width="200" height="60" as="geometry" />
        </mxCell>
        <mxCell id="yrki4BqhUQI8d_z3Tpax-113" value="" style="edgeStyle=elbowEdgeStyle;elbow=vertical;strokeWidth=4;endArrow=block;endFill=1;fontStyle=1;strokeColor=#23445D;entryX=0;entryY=0.5;entryDx=0;entryDy=0;" edge="1" parent="1">
          <mxGeometry x="-768" y="815" width="100" height="100" as="geometry">
            <mxPoint x="-60" y="590" as="sourcePoint" />
            <mxPoint x="-10" y="1076.5" as="targetPoint" />
            <Array as="points">
              <mxPoint x="-70" y="1077" />
            </Array>
          </mxGeometry>
        </mxCell>
        <mxCell id="yrki4BqhUQI8d_z3Tpax-114" value="" style="edgeStyle=elbowEdgeStyle;elbow=vertical;strokeWidth=4;endArrow=block;endFill=1;fontStyle=1;strokeColor=#23445D;entryX=0;entryY=0.5;entryDx=0;entryDy=0;" edge="1" parent="1" target="yrki4BqhUQI8d_z3Tpax-119">
          <mxGeometry x="-778" y="805" width="100" height="100" as="geometry">
            <mxPoint x="-60" y="590" as="sourcePoint" />
            <mxPoint x="-10" y="970" as="targetPoint" />
            <Array as="points">
              <mxPoint x="-40" y="970" />
            </Array>
          </mxGeometry>
        </mxCell>
        <mxCell id="yrki4BqhUQI8d_z3Tpax-115" value="" style="edgeStyle=elbowEdgeStyle;elbow=vertical;strokeWidth=4;endArrow=block;endFill=1;fontStyle=1;strokeColor=#23445D;entryX=0;entryY=0.5;entryDx=0;entryDy=0;" edge="1" parent="1" target="yrki4BqhUQI8d_z3Tpax-118">
          <mxGeometry x="-778" y="670" width="100" height="100" as="geometry">
            <mxPoint x="-60" y="590" as="sourcePoint" />
            <mxPoint x="-20" y="860" as="targetPoint" />
            <Array as="points">
              <mxPoint x="-100" y="860" />
            </Array>
          </mxGeometry>
        </mxCell>
        <mxCell id="yrki4BqhUQI8d_z3Tpax-116" value="" style="edgeStyle=elbowEdgeStyle;elbow=vertical;strokeWidth=4;endArrow=block;endFill=1;fontStyle=1;strokeColor=#23445D;exitX=0.5;exitY=1;exitDx=0;exitDy=0;entryX=0;entryY=0.5;entryDx=0;entryDy=0;" edge="1" parent="1" target="yrki4BqhUQI8d_z3Tpax-117">
          <mxGeometry x="-788" y="660" width="100" height="100" as="geometry">
            <mxPoint x="-60" y="590" as="sourcePoint" />
            <mxPoint x="20" y="690" as="targetPoint" />
            <Array as="points">
              <mxPoint y="750" />
            </Array>
          </mxGeometry>
        </mxCell>
        <mxCell id="yrki4BqhUQI8d_z3Tpax-117" value="short" style="rounded=1;shadow=1;fontStyle=1;fontSize=24;fillColor=#dae8fc;strokeColor=#006600;fontColor=#000099;" vertex="1" parent="1">
          <mxGeometry x="-10" y="720" width="200" height="60" as="geometry" />
        </mxCell>
        <mxCell id="yrki4BqhUQI8d_z3Tpax-118" value="byte" style="rounded=1;fillColor=#dae8fc;shadow=1;fontStyle=1;fontSize=24;strokeColor=#006600;fontColor=#000099;" vertex="1" parent="1">
          <mxGeometry x="-10" y="830" width="200" height="60" as="geometry" />
        </mxCell>
        <mxCell id="yrki4BqhUQI8d_z3Tpax-119" value="int" style="rounded=1;fillColor=#dae8fc;shadow=1;fontStyle=1;fontSize=24;strokeColor=#006600;fontColor=#000099;" vertex="1" parent="1">
          <mxGeometry x="-10" y="940" width="200" height="60" as="geometry" />
        </mxCell>
        <mxCell id="yrki4BqhUQI8d_z3Tpax-120" value="" style="edgeStyle=elbowEdgeStyle;elbow=vertical;strokeWidth=4;endArrow=block;endFill=1;fontStyle=1;strokeColor=#23445D;entryX=0;entryY=0.5;entryDx=0;entryDy=0;exitX=0.5;exitY=1;exitDx=0;exitDy=0;" edge="1" parent="1" source="10" target="yrki4BqhUQI8d_z3Tpax-65">
          <mxGeometry x="-478" y="640" width="100" height="100" as="geometry">
            <mxPoint x="250" y="590" as="sourcePoint" />
            <mxPoint x="300" y="730" as="targetPoint" />
            <Array as="points">
              <mxPoint x="250" y="736" />
            </Array>
          </mxGeometry>
        </mxCell>
        <mxCell id="yrki4BqhUQI8d_z3Tpax-122" value="" style="edgeStyle=elbowEdgeStyle;elbow=vertical;strokeWidth=4;endArrow=block;endFill=1;fontStyle=1;strokeColor=#23445D;entryX=0;entryY=0.5;entryDx=0;entryDy=0;exitX=0.5;exitY=1;exitDx=0;exitDy=0;" edge="1" parent="1" source="10" target="yrki4BqhUQI8d_z3Tpax-66">
          <mxGeometry x="-468" y="650" width="100" height="100" as="geometry">
            <mxPoint x="265" y="595.5" as="sourcePoint" />
            <mxPoint x="310" y="745.5" as="targetPoint" />
            <Array as="points">
              <mxPoint x="255" y="857" />
            </Array>
          </mxGeometry>
        </mxCell>
        <mxCell id="yrki4BqhUQI8d_z3Tpax-123" value="@codenaive" style="text;html=1;strokeColor=none;fillColor=none;align=center;verticalAlign=middle;whiteSpace=wrap;rounded=0;fontFamily=Courier New;fontSize=27;fontColor=#FF1414;fontStyle=1" vertex="1" parent="1">
          <mxGeometry x="1120" y="1170" width="160" height="30" as="geometry" />
        </mxCell>
      </root>
    </mxGraphModel>
  </diagram>
</mxfile>
